<?xml version="1.0" encoding="UTF-8"?>
<svg id="Layer_3" data-name="Layer 3" xmlns="http://www.w3.org/2000/svg" viewBox="0 0 625 625">
  <defs>
    <style>
      .cls-1 {
        fill: #3c3332;
      }

      .cls-1, .cls-2 {
        stroke-width: 0px;
      }

      .cls-2 {
        fill: #fff;
      }
    </style>
  </defs>
  <path class="cls-1" d="m410.53,396.11l-1.9-.77c-12.01-31.27-31.77-47.49-43.6-54.72v-29.88h9.23c17.82-.65,31.77-15.07,31.77-32.85s-14.75-32.87-32.9-32.87h-5.37c8.51-11.56,13.5-25.63,13.5-40.56,0-37.91-30.85-68.75-68.77-68.75s-68.77,30.84-68.77,68.75c0,14.93,4.98,29,13.5,40.56h-5.37c-18.15,0-32.9,14.75-32.9,32.87s13.96,32.2,32.3,32.85h8.7v29.87c-11.84,7.24-31.59,23.47-43.61,54.73l-1.9.77c-25.5,10.31-52.71,25.7-52.71,78.22v14.96h301.51v-14.96c0-52.52-27.21-67.91-52.72-78.22Z"/>
  <g>
    <path class="cls-2" d="m274.92,302.02v47.64s-30.86,11.46-45.85,54.09h166.85c-14.99-42.62-45.85-54.09-45.85-54.09v-47.64h-75.15Z"/>
    <path class="cls-2" d="m391.07,277.9c0-9.88-8.03-17.92-17.94-17.92h-121.27c-9.91,0-17.94,8.03-17.94,17.92s7.72,17.55,17.34,17.89h122.48c9.61-.34,17.33-8.18,17.33-17.89Z"/>
    <path class="cls-2" d="m290.96,253.73h43.06c18.99-8.33,32.28-27.21,32.28-49.27,0-29.72-24.09-53.79-53.81-53.79s-53.81,24.07-53.81,53.79c0,22.05,13.3,40.94,32.28,49.27Z"/>
    <path class="cls-2" d="m404.92,409.98h-184.85c-23.31,9.42-43.36,21.35-43.36,64.36h271.59c0-43.01-20.07-54.94-43.38-64.36Z"/>
  </g>
</svg>