<?xml version="1.0" encoding="UTF-8"?>
<svg id="Layer_17" data-name="Layer 17" xmlns="http://www.w3.org/2000/svg" viewBox="0 0 625 625">
  <defs>
    <style>
      .cls-1 {
        fill: #3c3332;
      }

      .cls-1, .cls-2 {
        stroke-width: 0px;
      }

      .cls-2 {
        fill: #fff;
      }
    </style>
  </defs>
  <path class="cls-1" d="m491.5,207.14c-24.46,0-44.38,19.91-44.38,44.38,0,.44.02.88.02,1.31l-23.98,14.62-17.57-75.35c10.91-8.23,17.65-21.19,17.65-35.29,0-24.46-19.91-44.36-44.37-44.36s-44.38,19.9-44.38,44.36c0,9.41,3.04,18.49,8.47,25.97l-30.82,51.73-31.06-52.1c4.7-7.13,7.27-15.48,7.27-24.16,0-24.46-19.9-44.36-44.38-44.36s-44.37,19.9-44.37,44.36c0,14.65,7.11,27.88,18.58,36.01l-17.08,73.2-23.28-14.19c.02-.58.04-1.17.04-1.74,0-24.46-19.9-44.38-44.37-44.38s-44.38,19.91-44.38,44.38c0,21.04,14.71,38.7,34.41,43.24l38.06,98.72v85.46l.11,1.72c1.46,12.82,13.14,31.9,39.24,31.9h222.42c26.11,0,37.77-19.08,39.25-31.9l.08-87.14,38.01-98.58c20.07-4.25,35.17-22.1,35.17-43.41,0-24.46-19.9-44.38-44.37-44.38Z"/>
  <g>
    <path class="cls-2" d="m491.5,222.1c-16.24,0-29.41,13.17-29.41,29.42,0,3.09.61,6.01,1.48,8.81l-50.27,30.65-24.85-106.48c11.51-3.99,19.81-14.81,19.81-27.69,0-16.24-13.17-29.4-29.4-29.4s-29.43,13.17-29.43,29.4c0,9.81,4.86,18.45,12.24,23.78l-49.54,83.13-49.44-82.96c6.48-5.39,10.69-13.41,10.69-22.52,0-16.24-13.17-29.4-29.42-29.4s-29.42,13.17-29.42,29.4c0,13.25,8.81,24.32,20.86,28.01l-24.44,104.73-49.68-30.28c.96-2.91,1.61-5.95,1.61-9.18,0-16.25-13.17-29.42-29.42-29.42s-29.42,13.17-29.42,29.42,13.17,29.42,29.42,29.42c.23,0,.46-.06.69-.07l42.04,109.01h271.85l42.05-109.07c.47.02.91.13,1.38.13,16.26,0,29.43-13.17,29.43-29.42s-13.17-29.42-29.43-29.42Z"/>
    <path class="cls-2" d="m176.55,396.11v82.83s2.14,18.66,24.39,18.66h222.42c22.24,0,24.39-18.66,24.39-18.66v-82.83H176.55Zm15.02,77.36v-54.43l38.22,26.68-38.22,27.75Zm121.39-.63l-38.22-26.78,38.03-26.53.18.12,37.34,26.07-37.34,27.12Zm120.49.63l-38.22-27.75,38.22-26.68v54.43Z"/>
  </g>
</svg>