<?xml version="1.0" encoding="UTF-8"?>
<svg id="Layer_9" data-name="Layer 9" xmlns="http://www.w3.org/2000/svg" viewBox="0 0 625 625">
  <defs>
    <style>
      .cls-1 {
        fill: #3c3332;
      }

      .cls-1, .cls-2 {
        stroke-width: 0px;
      }

      .cls-2 {
        fill: #fff;
      }
    </style>
  </defs>
  <path class="cls-1" d="m497.16,502.16l5.68,19.21-20.01.07H140.09l1.26-16.13c2.85-36.39,25.32-70.31,51.31-95.85-5.62,3.1-12.13,4.55-18.54,3.04-8.48-2-15.87-8.54-20.92-14.24-7.45.08-14.35-2.91-18.93-8.52-6.21-7.56-6.51-16.35-3.49-23.44-.65.05-1.35.08-2.09.08-6.91,0-12.97-2.59-17.08-7.3-6.43-7.41-6.68-16.31-3.44-23.88-2.81-6.77-6.09-16.59-6.09-25.67,0-20.61,17.9-35.17,34.68-47.2,17.27-12.4,60.01-45.48,73.07-58.16,11.05-10.75,32.57-30.03,52.47-38.48,9.27-3.93,20.28-6.5,28.72-8.06.77-13.7,4.11-34.1,16.41-46.4l6.17-6.17,8.41,2.34c18.6,5.16,43.35,24.96,54.46,49.67l8.9,4.11c20.67,12.54,99.35,68.52,99.95,194.62.5,106.92,11.71,145.96,11.83,146.34Z"/>
  <g>
    <path class="cls-2" d="m393.94,398.98c6.15-27.48,11.47-51.21,8.61-80.97-6.66-69.39-30.22-93.74-39.13-101.65l-5.09-4.65,2.37-3.92c24.11-39.7-20.3-79.74-42.68-85.96-14.41,14.41-12.07,48.68-12.07,48.68,0,0-22.2,2.34-37.78,8.96-15.58,6.62-34.27,22.2-47.9,35.44-13.63,13.24-56.86,46.74-74.78,59.59-17.92,12.85-28.43,23.37-28.43,35.05s8.18,26.87,8.18,26.87c0,0-7.4,7.01-2.34,12.85,2.73,3.13,8.18,1.95,8.18,1.95,0,0,11.17-8.82,15.34-10.91,4.14-2.08,11.42-2.08,15.58,5.2,4.14,7.27-.52,11.93-4.67,15.58-4.16,3.63-10.91,8.3-10.91,8.3,0,0-5.21,5.21-.54,10.91,4.67,5.72,13.51,1.56,13.51,1.56,0,0,9.35,14.02,18.18,16.1,8.81,2.08,18.68-11.43,35.29-23.37,16.63-11.94,38.44-17.66,51.95-17.14,13.5.52,52.97-4.67,69.06-18.69,16.09-14.02,23.88-44.14,22.32-62.84,3.65,30.12,2.6,48.8-17.14,71.15-19.72,22.32-43.62,21.81-77.36,33.23-33.76,11.44-100.75,66.48-105.42,126.19h225.25c-1.19-45.94,5.96-78.62,12.43-107.5Zm-236.77-89.04c-6.23-1.95-8.18-3.12-11.68-1.56,0,0-.39-7.4,5.45-12.46,5.84-5.06,17.92-1.56,18.3,4.67.39,6.23-5.84,11.3-12.07,9.35Zm120.34-54.13c-6.45,0-11.68-5.23-11.68-11.68s5.23-11.68,11.68-11.68,11.68,5.23,11.68,11.68-5.23,11.68-11.68,11.68Zm7.75-35.56c-5.15-.3-10.72-.8-19.24,3.93-17.65,9.81-42.26,29.68-42.26,29.68,0,0,26.7-25.91,34.01-33.02,8.25-8.06,19.66-12.64,32.01-8.06,7.85,2.92,14.73,11.68,18.67,22.59,0,0-10.03-14.34-23.19-15.13Z"/>
    <path class="cls-2" d="m470.37,355.89c-.57-122.52-77.89-173.96-96.07-183.83-.45-.82,5,14.54-7.44,37.77,11.14,10.05,38.01,37.32,44.7,107.1,3.03,31.53-2.73,57.25-8.81,84.49-6.34,28.29-13.35,60.29-12.17,105.06h92.25s-11.94-38.95-12.46-150.59Z"/>
  </g>
</svg>