<?xml version="1.0" encoding="UTF-8"?>
<svg id="Layer_15" data-name="Layer 15" xmlns="http://www.w3.org/2000/svg" viewBox="0 0 625 625">
  <defs>
    <style>
      .cls-1 {
        fill: #3c3332;
      }

      .cls-1, .cls-2 {
        stroke-width: 0px;
      }

      .cls-2 {
        fill: #fff;
      }
    </style>
  </defs>
  <path class="cls-1" d="m422,191.97c-13.43-1.83-27.88-1.16-41.6,1.94l-1.83.53c-1.79.66-3.93,1.49-6.35,2.52-5.45-4.71-11.38-8.74-17.7-12.01l13.56,2.02v-61.77l-29.17,4.33,4.33-30.73h-61.51l4.33,30.73-29.15-4.33v61.77l13.51-2.01c-6.29,3.27-12.23,7.29-17.68,12-2.41-1.02-4.54-1.86-6.34-2.51l-1.83-.55c-13.68-3.09-28.16-3.76-41.58-1.94-40.13,5.44-102.93,41.6-100.59,115.48,1.91,61.09,43.6,94.79,59.53,105.47v79.66l.1,1.7c1.47,12.83,13.14,31.91,39.25,31.91h222.41c26.11,0,37.78-19.08,39.25-31.91l.1-81.36c15.93-10.69,57.63-44.39,59.55-105.47,2.31-73.88-60.48-110.04-100.59-115.48Z"/>
  <path class="cls-2" d="m176.89,492.58s2.14,18.66,24.39,18.66h222.41c22.25,0,24.39-18.66,24.39-18.66v-82.83H176.89v82.83Zm256.9-59.9v54.43l-38.22-27.75,38.22-26.68Zm-120.69.49l.19.12,37.34,26.07-37.34,27.12-38.22-26.78,38.02-26.53Zm-121.2-.49l38.22,26.68-38.22,27.75v-54.43Zm116.94-29.16h-133.73s-55.69-30.27-57.76-96.53c-2.09-66.27,55.33-95.81,87.65-100.19,10.42-1.41,23.03-1.29,36.27,1.7,12.61,4.6,43.25,18.52,62.19,50.39,5.52,9.44,5.96,26,5.96,26v118.63h-.58Zm-7.35-213.05l2.17-25.56-31.79,4.72v-27.08l31.79,4.73-4.72-33.52h27.09l-4.72,33.52,31.81-4.73v27.08l-31.81-4.72,2.14,25.56c15.77,2.29,29.96,9.35,41.11,19.72-16.6,8.88-38.29,24.95-52.07,52.38-13.8-27.46-35.49-43.51-52.09-52.38,11.15-10.37,25.34-17.43,41.09-19.72Zm206.15,116.52c-2.09,66.26-57.79,96.53-57.79,96.53h-134.19v-118.43s.34-15.97,6.01-26.41c18.94-31.7,49.46-45.59,62.02-50.17,13.27-2.99,25.87-3.12,36.29-1.7,32.32,4.38,89.72,33.92,87.65,100.19Z"/>
</svg>