<?xml version="1.0" encoding="UTF-8"?>
<svg id="Layer_11" data-name="Layer 11" xmlns="http://www.w3.org/2000/svg" viewBox="0 0 625 625">
  <defs>
    <style>
      .cls-1 {
        fill: #3c3332;
      }

      .cls-1, .cls-2 {
        stroke-width: 0px;
      }

      .cls-2 {
        fill: #fff;
      }
    </style>
  </defs>
  <path class="cls-1" d="m423.87,410.96h-20.75c6.88-8.46,6.85-17.7,6.78-18.95v-24.12c39-37.16,51.08-80.23,32.16-115.87-17.49-32.96-52.33-64.42-82.17-87.25,1.78-4.3,2.7-8.84,2.7-13.45,0-22.97-22.48-41.66-50.09-41.66s-50.1,18.69-50.1,41.66c0,4.61.93,9.15,2.7,13.45-29.82,22.82-64.65,54.27-82.16,87.25-18.93,35.64-6.84,78.71,32.15,115.87v23.94c-.02,1.85.24,10.89,7.01,19.15h-21.75c-26.75,1.41-77.34,21.89-77.34,89.41v14.96h113.6c22.28-.06,59.9-9.29,75.87-40.19,15.94,31.01,53.61,40.19,75.91,40.19h113.59v-14.96c0-67.51-50.58-88-78.11-89.42Z"/>
  <g>
    <path class="cls-2" d="m228.14,359.71h168.71c25.86-23.61,52.22-62.58,32-100.68-19.25-36.28-62.89-71.59-89.35-90.82,5-4.6,8.13-10.44,8.13-16.89,0-14.74-15.74-26.7-35.14-26.7s-35.14,11.96-35.14,26.7c0,6.45,3.14,12.29,8.14,16.89-26.47,19.23-70.09,54.54-89.36,90.82-20.23,38.1,6.13,77.07,32,100.68Zm46.97-111.24l29.27,4.36-4.34-30.84h24.93l-4.35,30.84,29.27-4.36v24.93l-29.27-4.33,4.35,51.46h-24.93l4.34-51.46-29.27,4.33v-24.93Z"/>
    <path class="cls-2" d="m423.87,425.92h-74.01v-17.28h22.48c23.36,0,22.6-16.63,22.6-16.63v-26.07h-164.89v26.07s-.21,16.63,22.6,16.63h22.49v17.28h-74.01s-63.17,3.31-63.17,74.46h98.61s68.48-.17,68.48-58.52v-33.23h14.88v33.23c0,58.86,68.47,58.52,68.47,58.52h98.61c0-71.15-63.15-74.46-63.15-74.46Z"/>
  </g>
</svg>