<?xml version="1.0" encoding="UTF-8"?>
<svg id="Layer_19" data-name="Layer 19" xmlns="http://www.w3.org/2000/svg" viewBox="0 0 625 625">
  <defs>
    <style>
      .cls-1, .cls-2 {
        fill-rule: evenodd;
      }

      .cls-1, .cls-2, .cls-3 {
        stroke-width: 0px;
      }

      .cls-1, .cls-3 {
        fill: #3c3332;
      }

      .cls-2 {
        fill: #fff;
      }
    </style>
  </defs>
  <g>
    <g>
      <path class="cls-1" d="m486.45,352.01l20.15,23.84s5.64-11.86,7.83-11.86,8.06-14.39,6.68-26.71c0,0,4.49-8.98,2.42-13.59-2.19-4.49-11.63-62.3-21.99-63.68-10.48-1.38-12.21-4.72-20.96,4.15-8.87,8.75-26.72,17.04-29.82,18.54-3.22,1.61-27.06,9.67-29.82,23.38,0,0-1.96-18.42,29.02-27.29,0,0-1.84-33.05-32.13-34.78h13.47s-29.13-35.58-43.99-46.18c-14.97-10.59-9.1-21.65-9.1-21.65,0,0-14.28-6.56-8.75-16.81,0,0,4.84,18.19,17.16,14.85,0,0,8.06,1.04,12.55,2.76,4.61,1.84,7.14.23,7.14.23,0,0,4.72,9.44,8.64,8.41,3.91-.92,11.98-1.5,11.98-1.5,0,0,2.53-6.1-5.76-13.24,0,0,1.04-2.65,8.29,1.38,7.25,4.15,13.47-3.68,13.47-3.68,0,0-3.45-10.82-6.22-13.93-2.76-3.11-21.99-13.13-21.99-13.13l-16.81-11.4s-1.84-4.49-5.99-5.99c-4.26-1.61-16.7-12.09-28.33-12.78,0,0-9.33-7.48-19.23-7.6,0,0,2.99,13.93,17.73,19.69,0,0-14.28-1.27-17.73-12.32,0,0-43.99,32.13-35.01,61.49l9.44,62.76-21.53-5.07-13.01,9.56v-7.6l19.23-18.08s-3.11-63.45-5.87-66.21c-2.76-2.76-3.11-3.11-3.11-3.11l.23-1.5-11.17.46c.58,1.73-1.04,3.91-1.04,3.91,0,0-2.3,22.92,0,25.56,2.3,2.53-1.15,21.88-1.15,21.88l-10.13-3.57s-.35,7.95-8.41,7.14c0,0,6.68-1.27,6.45-7.14-.12-5.87,5.76-7.6,5.76-7.6l-3.34-9.44s6.1-4.84,4.49-9.21c-1.5-4.26-9.21-14.51-9.21-14.51l6.56-6.79s-34.2-10.59-42.38,11.52c0,0-3.57,13.13-2.42,19.46,1.27,6.22-4.26,15.31-4.26,15.31,0,0,7.02,2.76,9.44,1.15,0,0,3.92,9.56-.69,10.82-4.49,1.15-2.3,9.21-2.3,9.21,0,0-26.48,30.4-28.21,48.02-1.84,17.62-13.59,63.91-49.51,37.88-35.81-26.14-40.76-52.62-40.76-52.62,0,0-14.05,41.8,2.53,65.52,16.7,23.72,4.72,35.93,4.72,35.93,0,0,10.36,25.33,45.14,23.38,34.66-2.07,27.06-4.72,27.06-4.72,0,0,16.47-2.42,20.15-8.29,3.8-5.87,22.57-60.8,21.07-78.07-1.61-17.27-2.42-12.32-2.42-12.32,0,0,7.72,17.85,14.74,20.73,7.02,2.99,10.82,4.72,10.82,4.72,0,0-4.38,34.31,14.85,35.93,19.23,1.61,37.88-1.15,37.88-1.15,0,0-18.19,37.54-19.58,53.66,0,0-5.18,8.64-9.21,13.82-4.03,5.18,8.41,13.13,8.41,13.13,0,0-16.47-4.72-13.7-11.98,2.65-7.25,10.13-16.12,10.13-16.12,0,0,5.64-36.5,13.93-45.71h-33.16s-45.83,7.14-67.02,48.48c0,0-54.12,5.3-49.86,44.1l5.07-4.72s-9.33,29.13,0,47.1c9.44,18.08,11.75,72.78,3.22,80.84l5.87-5.07s-5.18,27.18-21.65,34.89c0,0,59.99-3.11,61.61-44.33,1.61-41.22-5.07-50.21-5.07-50.21l11.75,12.9s-5.53-23.84-18.08-36.04c-12.55-12.21-19.23-31.44,6.68-55.27,0,0,21.65,43.07,40.07,41.91,0,0-16.12,17.62-19.69,22.8-3.45,5.07,5.18,15.31,22.8,26.25,17.62,10.94,39.61,52.51,39.96,55.73.46,3.11-5.07,10.59-5.07,10.59l-3.11,15.66h37.31s-2.42-21.76-6.33-21.76-1.96,5.64-5.07-7.25c-3.22-13.01-3.57-22.11-3.57-22.11,0,0-31.32-43.76-36.5-46.18-5.07-2.3-7.37-8.98-7.37-8.98,0,0,22.34-5.87,29.71-14.51,0,0-1.96,10.59-21.53,18.42,0,0,17.62,20.04,25.45,25.91,7.95,5.87,11.63,25.79,20.84,30.17,9.21,4.26,9.21,4.72,9.21,4.72v14.05l-3.68,7.95,3.68,10.13,35.12-1.96s-5.99-12.55-11.17-15.66c-5.3-3.11-7.72-2.42-7.72-8.64s-2.65-23.49-2.65-23.49c0,0-14.51-15.31-23.95-23.15-9.44-7.95-28.67-24.76-16.12-31.78,12.55-7.14,37.08-11.05,31.78-47.1,0,0,61.95-24.18,98.91-71.85l7.83-4.49s-14.97-.92-14.51-10.71c0,0,8.64,9.33,21.53.69,12.9-8.64,51.01-57.23,57.23-49.75,6.33,7.37,10.59,50.55,10.59,50.55l2.42,2.42-18.31,17.5Zm-204.39-209.46c.12,0,.12.12.23.12-.12,0-.12-.12-.23-.12h0Zm33.39,104.21s-8.64,4.38-14.16,5.18c-5.41.69-8.98,4.03-8.98,4.03,0,0,23.15,28.67,23.15,30.05s7.02,1.61,8.98-3.91c1.96-5.53-2.07-12.21-3.68-20.27-1.61-7.95-5.3-15.08-5.3-15.08h0Z"/>
      <path class="cls-3" d="m90.93,591.49l46.29-21.69c8.59-4.02,13.73-18.23,15.54-25.38l-2.4-2.65c-.37.35-.52.6-.53.6,1.24-2.03,3.45-12.51,2.42-31.91-.85-15.99-3.71-31.12-7.11-37.64-5.47-10.54-5.91-23.39-4.84-34.03l-1.3-11.88c-1.32-12.06,1.69-22.71,8.95-31.65,5.95-7.33,14.05-12.42,22-15.94-1.44.1-2.95.19-4.52.29-21.38,1.21-35.07-6.63-42.8-13.42-8.46-7.43-11.83-15.28-12.19-16.15l-2.75-6.72,4.71-3.94c.84-1.24,4.81-8.51-5.6-23.3-8.32-11.9-11.42-28.2-9.25-48.48,1.54-14.33,5.26-25.52,5.42-25.98l12.78-38.04,6.52,39.35c1.71,8.03,11.57,27.98,36.84,46.42,7.28,5.27,13.17,6.98,17.47,5.06,8.48-3.79,14.68-21.33,16.21-35.91,1.67-16.99,19.62-40.36,27.63-50.02-.05-1.23-.01-2.56.19-3.91l4.31-7.61-14.4-2.85,5.45-8.96c1.63-2.73,3.12-6.82,2.99-8.22l-.02-.11c-1.44-7.94,1.63-20.28,2.61-23.87l.27-.84c4.83-13.07,16.73-20.38,33.51-20.58,8.89-.11,17,1.82,19.99,2.63l6.77-.28v-1.32c1.64,0,3.23.39,4.65,1.13l19.74-.81-.97,6.31c2.71-4.87,6.17-9.81,10.36-14.78,6.97-8.26,14.41-14.79,18.78-18.36-.01-.07-.03-.13-.04-.19l-2.63-12.25,12.52.15c9.83.12,18.62,5.11,22.84,7.96,9.65,1.51,18.44,7.04,24.46,10.83,1.32.83,3.11,1.96,3.77,2.28,5.06,1.91,8.22,5.63,9.96,8.38l14.35,9.73c20.4,10.65,23.35,13.98,24.33,15.08,3.63,4.08,6.74,12.74,8.27,17.54l1.62,5.08-3.32,4.18c-3.2,4.03-8.07,7.37-13.55,8.38-.2,2.57-.86,4.32-1.05,4.78l-2.37,5.7-6.16.44c-2.99.21-8.13.74-10.33,1.24-5.81,1.44-11.52-1.29-16.26-7.6-1.68-.21-3.53-.65-5.52-1.44-1.81-.69-5.04-1.34-7.57-1.77.9,1.54,2.52,3.29,5.12,5.13,15.52,11.07,42.88,44.26,45.95,48l6.14,7.5c2.56,2.45,4.73,5.17,6.55,8l.69.84h-.16c2.75,4.49,4.66,9.23,5.89,13.68,8.96-5,13.36-8.62,15.38-10.61,9.11-9.21,14.87-9.88,24.33-7.88,1.53.32,3.1.65,5,.9,12.62,1.68,18.42,18.88,27.45,59.35.94,4.2,2,8.94,2.43,10.31,2.87,6.6.56,14.53-1.46,19.34.48,11.97-3.78,25.74-8.43,30.94-.99,1.11-2.03,1.91-3.04,2.49-1.08,1.64-2.83,4.83-4.16,7.61l-6.66,13.98-36.23-42.84,19.6-18.74c-1.36-13.53-3.79-29.24-6.08-38.21-6.58,5.68-16.46,16.1-22.47,22.46-5.66,5.98-10.87,11.48-15.37,15.77l-4.71,5.28-17.38,15.65c-2.03,2.56-4.12,5.04-6.27,7.46l-3,3.31h0c-29.62,31.9-67.67,51.49-84.33,59.1l-1.32,6.35h0c-1.25,26.93-20.5,35.75-31.51,40.79-1.54.7-3.01,1.38-4.31,2.03,1.39,2.44,5.26,7.34,15.95,16.32,9.74,8.07,24.16,23.28,24.77,23.92l2.15,2.27.48,3.09c.26,1.71,2.44,16,2.73,23.52.81.4,1.76.9,2.81,1.51,7.09,4.25,12.94,15.39,15.13,19.98l6.42,13.46-45.31,2.53,1.08,9.72h-60.66l5.92-29.8,1.33-1.8c.92-1.26,1.94-2.88,2.61-4.11-4.46-9.54-22.27-40.05-34.73-47.78-7.15-4.44-12.95-8.76-17.4-12.94.34,1.25.55,2.12.64,2.53l8.65,37.31-14.89-16.35c.13,5.53.09,11.83-.19,19-.83,21.14-13.88,37.23-37.76,46.55-16.51,6.44-32.64,7.34-33.32,7.38l-51.05,2.65Zm194.56-22.63h13.4c-.07-.32-.14-.64-.21-.94-.08-.02-.16-.05-.23-.07-5.29-1.68-6.65-5.95-7.68-10.28-1.13,3.82-3.34,7.38-4.96,9.71l-.31,1.58Zm-107.18-51.21l-5.38,28.2c-.3,1.56-1.82,8.9-5.51,17.23,12.58-4.79,25.04-13.44,25.65-28.93,1.36-34.82-3.5-44.43-3.56-44.54.26.5.46.69.46.69l5.6-4.16c-2.64-6.39-6.32-13.34-10.88-17.78-9.38-9.12-14.26-19.83-14.11-30.96.18-13.13,7.24-26.2,20.99-38.84l7.36-6.77c-5.92.74-18.64,3.52-28.14,9.71l-7.26,22.67c-2.22,7.02-6.68,27.82-.65,39.44,7.54,14.44,9.15,40.68,9.46,48.38.15,3.78.21,7.34.17,10.67l5.79-4.99Zm146.79,36.66l-2.17,4.68,7.76-.43c-2.01-1.04-4-2.33-5.59-4.25Zm-15.46-8.92s0,0,0,0c0,0,0,0,0,0Zm-80.79-71.54c1.99,2.65,7.15,7.83,17.95,14.54,8.83,5.48,18.79,16.88,29.62,33.88.09.15,6.3,9.92,10.7,18.49-.67-4.02-1.04-7.27-1.24-9.47-12.66-17.58-27.7-37.32-31.84-41.08-7.85-4.11-11.13-12.63-11.72-14.35l-3.51-10.19,10.43-2.74c7.8-2.06,21.03-7.09,24.64-11.33l24.22-28.39-5.28,28.57c11.11-5.11,19.82-9.77,18.58-27.77l-25.53-7.32c-4.56-1.31-15.61-5.23-19.68-13.37-1.85-3.71-2.08-7.86-.64-11.7,2.37-6.47,7.33-13.34,10.05-16.84,1.19-7.15,3.67-20.27,7.49-31.51h-16.37c-5.27,1.05-41.79,9.43-59.02,43.04l-2.49,4.86-2.95.29,5.02,9.98c9.63,19.1,24.43,36.83,30.51,36.43l24.72-1.54-16.72,18.28c-5,5.46-13,14.42-16.95,19.27Zm81.68,49.69c4.09,1.89,7.3,3.38,9.67,4.92-.19-1.44-.39-2.85-.58-4.15-3.99-4.13-12.72-13.01-19.37-18.77,1.17,2.15,2.26,4.38,3.33,6.59,1.76,3.62,5.04,10.37,6.95,11.42Zm-34.47-44.17c.44.47.88.95,1.33,1.42-.29-.59-.57-1.18-.81-1.77-.17.12-.34.23-.52.35Zm17.65-5.82s0,0,0,0c0,0,0,0,0,0Zm-97.28-50.78c-3.82,5.24-5.79,10.22-5.85,14.89-.08,5.57,2.63,11.07,8.05,16.34,4.11,3.99,7.53,8.86,10.33,13.83.39-1,.89-1.96,1.5-2.85,1.91-2.78,6.42-8.07,10.78-13.01-5.79-4.09-11.72-10.34-17.87-18.8-2.6-3.58-4.95-7.17-6.95-10.4Zm94.47-26.53c.99.88,2.17,1.79,3.1,2.38l18.19,11.62,4.92-1.92c.57-.22,56.17-22.35,91.25-64.45-3.49-3.4-5.64-7.98-5.37-13.76l1.23-26.25,7.38,9.14-.63-5.89c-.11-1-2.05-22.89,27.62-35.01-2.14-7.26-7.58-17.34-21.36-18.13l.31-10.81c-10.23-12.01-26.94-30.7-36.06-37.21-11.5-8.14-14.62-17.67-14.41-25.1-3.09-2.52-6.33-6.13-7.93-10.89-1.7-5.08-1.18-10.4,1.5-15.36l10.95-20.3-10.4-.92c-5.01-.44-12.72-2.61-18.73-7.76-11.8,10.71-28.03,29.46-23.56,44.05l.22.71,11.75,78.09-4.13-.97c1.31,3.23,2.84,7.62,3.8,12.35.44,2.2,1.13,4.35,1.86,6.64,1.82,5.68,3.87,12.12,1.45,18.96-3.13,8.84-12.09,12.37-18.91,11.19-4.08-.7-7.27-3.22-8.69-6.58-2.38-3.5-12.61-16.5-21.74-27.8l-5.17-6.4-5.11,3.75v-31.68l19.01-17.87c-.33-6.25-.7-12.68-1.1-18.89-.26,1.78-.58,3.7-.95,5.77l-2.07,11.58-13.05-4.6c-.29.29-.59.57-.91.85-2.48,2.15-6.82,4.58-13.35,3.92l-18.75-1.88c-.67.99-1.46,1.87-2.35,2.62l1.26,4.63-3.51,4.03c-10.13,11.64-24.83,32.5-25.8,42.42-.45,4.29-1.97,15.34-6.57,26.76-5.17,12.83-12.36,21.37-21.38,25.4-14.07,6.28-28.09-.42-37.38-7.15-13.98-10.21-23.67-20.58-30.35-29.72-.44,10.38.88,21.2,6.19,28.79,13.7,19.46,11.55,33.75,8.1,41.65,3.61,4.88,11.79,12.68,27.42,13.43l31.75-4.66c5.19-.78,11.45-2.71,13.34-4.09,4.17-8.02,20.55-57.92,19.37-71.52-.32-3.46-.59-5.79-.8-7.35-.31-.68-.59-1.31-.83-1.87l-1.16-2.69.47-2.89c1-6.14,6.07-9.18,10.54-9.04,3.12.11,8.58,1.61,10.27,10.43,2.74,5.45,6.08,10.55,7.86,11.81,6.97,2.97,10.75,4.69,10.91,4.76l6.72,3.05-.93,7.32c-.84,6.78-.4,18.91,3.21,23.36.72.89,1.39,1.24,2.56,1.34,17.77,1.49,35.41-1.05,35.59-1.08l18.69-2.74-8.23,17c-6.72,13.88-17.72,39.77-18.61,50.15l-.2,2.31-1.19,1.98c-.18.3-3.54,5.89-7.1,10.99Zm223.54-22.25h0,0Zm.02,0h0Zm-14.31-21.25l5.03,5.95c1.02-1.19,2.04-2.13,3.08-2.84,1.21-2.7,2.85-8.3,3.03-13.76l-11.14,10.65Zm-296.15-2h0Zm-91.74-11.18s0,0,0,0c0,0,0,0,0,0Zm129.1-43.48c-2.3,12.26-6.46,27-10.57,39.52,7.94-4.4,15.42-7.31,21.29-9.18-5.55-8.72-6.4-20.66-6.25-28.42-1.25-.54-2.68-1.16-4.28-1.84-.06-.03-.13-.05-.19-.08Zm270.54,31.43l1.66,1.66c.26-.88.45-1.67.5-2.21-.81-2.12-1.57-5.47-3.29-13.16-.46-2.05-1.11-4.97-1.89-8.35.14.83.28,1.68.42,2.56,1.25,7.89,2.14,15.29,2.61,19.5Zm-56.78-35.84c-.7.35-1.51.68-2.71,1.18-17.69,7.35-21.18,12.67-21.69,15.18l-3.18,15.78c.45-.24.92-.52,1.4-.84,3.88-2.6,12.61-11.81,20.31-19.94,6.21-6.56,11.46-12.01,16-16.46-2.99,1.6-6.2,3.23-9.63,4.86l-.49.24Zm77.46,27.78l.05.12s.02.03.02.05c-.03-.06-.05-.12-.08-.17Zm-.07-.15l.04.08s-.03-.05-.04-.08Zm-217.56-40.33h0Zm184.42-3.9c.7.82,1.44,1.84,2.2,3.25-1.29-3.82-2.57-6.95-3.76-8.77-1.58-.27-2.94-.55-4.11-.8-.94-.2-2.08-.44-2.68-.51-.4.25-1.34.92-3.07,2.66.82-.12,1.63-.17,2.43-.14,3.55.12,6.74,1.65,8.99,4.31Zm-249.79,2.79h0s0,0,0,0Zm59.1-17.49c.73.91,1.42,1.78,2.09,2.62-.24-1.04-.51-2.06-.81-3.05-.42.15-.85.29-1.28.43Zm-9.22-19.3l-1.86,1.36c.74-.17,1.51-.31,2.3-.41.51-.08,1.12-.23,1.8-.42l-2.24-.53Zm-60.53-63.77l4.25,10.38c.3.74.68,1.75,1.04,2.94l15.21-1.56c.31-2.37,1.09-4.49,2.18-6.36l.22-5.03.42.15-2.42-6.83,5.62-4.25c.06-.05.13-.11.19-.17-1.48-2.47-4.1-6.33-6.66-9.73l-4.03-5.35c-6.05.15-12.05,1.79-14.27,7.16-1.34,5.11-2.49,12.2-2.11,14.52.27,1.37.37,2.76.35,4.14Zm146.99-13.27l1.97.25c1.54.2,9.49,1.29,14.83,3.34l7.57-4.81,1.86,3.72c1.26-2.64,3.59-4.71,6.49-5.76,3.47-1.25,6.96-.82,10.05.2-3.16-2.19-11.61-6.95-18.59-10.59l-.51-.27-20.06-13.6-.21-.63-16.13-1.43,5.94,22.33c1,3.59,3.39,7.37,4.59,7.84,0,0,.11-.02.28-.07l1.92-.52Zm-103.63-31.38v1.2l4.35-.18c-1.34-.66-2.84-1.02-4.35-1.02Z"/>
    </g>
    <g>
      <path class="cls-1" d="m283.56,143.93l9.79,5.64,5.41-5.76,11.98,7.71,6.22,1.61-2.3-8.18-14.16-7.6s1.38-4.84-2.07-7.48c-3.34-2.65-8.75-3.22-8.75-3.22h-2.88l3.68-7.6s-4.95,1.5-8.18,6.22l-116.76-79.45-15.78-1.15,6.1,14.51,119.99,72.66s-4.38,9.67-.81,12.44c1.61-3.8,3.91-5.18,6.22-3.68,2.07,1.27,2.53,2.42,2.3,3.34h0Z"/>
      <path class="cls-3" d="m331.3,167.2l-24.63-6.39-6.33-4.08-5.13,5.46-13.59-7.83-2.45,5.77-10.26-7.94c-4.39-3.4-6.06-9.03-4.92-15.83l-116.1-70.31-13.69-32.54,34.73,2.53,112.38,76.47c2.95-1.94,5.49-2.8,6.26-3.03l10.03,1.74,3.59,8.62c1.15.6,2.3,1.31,3.37,2.15,3.22,2.5,5.03,5.86,5.79,9.31l12.77,6.85,8.18,29.03Zm-46.87-19.4h0Z"/>
    </g>
  </g>
  <g>
    <path class="cls-2" d="m486.45,352.01l20.15,23.84s5.64-11.86,7.83-11.86,8.06-14.39,6.68-26.71c0,0,4.49-8.98,2.42-13.59-2.19-4.49-11.63-62.3-21.99-63.68-10.48-1.38-12.21-4.72-20.96,4.15-8.87,8.75-26.72,17.04-29.82,18.54-3.22,1.61-27.06,9.67-29.82,23.38,0,0-1.96-18.42,29.02-27.29,0,0-1.84-33.05-32.13-34.78h13.47s-29.13-35.58-43.99-46.18c-14.97-10.59-9.1-21.65-9.1-21.65,0,0-14.28-6.56-8.75-16.81,0,0,4.84,18.19,17.16,14.85,0,0,8.06,1.04,12.55,2.76,4.61,1.84,7.14.23,7.14.23,0,0,4.72,9.44,8.64,8.41,3.91-.92,11.98-1.5,11.98-1.5,0,0,2.53-6.1-5.76-13.24,0,0,1.04-2.65,8.29,1.38,7.25,4.15,13.47-3.68,13.47-3.68,0,0-3.45-10.82-6.22-13.93-2.76-3.11-21.99-13.13-21.99-13.13l-16.81-11.4s-1.84-4.49-5.99-5.99c-4.26-1.61-16.7-12.09-28.33-12.78,0,0-9.33-7.48-19.23-7.6,0,0,2.99,13.93,17.73,19.69,0,0-14.28-1.27-17.73-12.32,0,0-43.99,32.13-35.01,61.49l9.44,62.76-21.53-5.07-13.01,9.56v-7.6l19.23-18.08s-3.11-63.45-5.87-66.21c-2.76-2.76-3.11-3.11-3.11-3.11l.23-1.5-11.17.46c.58,1.73-1.04,3.91-1.04,3.91,0,0-2.3,22.92,0,25.56,2.3,2.53-1.15,21.88-1.15,21.88l-10.13-3.57s-.35,7.95-8.41,7.14c0,0,6.68-1.27,6.45-7.14-.12-5.87,5.76-7.6,5.76-7.6l-3.34-9.44s6.1-4.84,4.49-9.21c-1.5-4.26-9.21-14.51-9.21-14.51l6.56-6.79s-34.2-10.59-42.38,11.52c0,0-3.57,13.13-2.42,19.46,1.27,6.22-4.26,15.31-4.26,15.31,0,0,7.02,2.76,9.44,1.15,0,0,3.92,9.56-.69,10.82-4.49,1.15-2.3,9.21-2.3,9.21,0,0-26.48,30.4-28.21,48.02-1.84,17.62-13.59,63.91-49.51,37.88-35.81-26.14-40.76-52.62-40.76-52.62,0,0-14.05,41.8,2.53,65.52,16.7,23.72,4.72,35.93,4.72,35.93,0,0,10.36,25.33,45.14,23.38,34.66-2.07,27.06-4.72,27.06-4.72,0,0,16.47-2.42,20.15-8.29,3.8-5.87,22.57-60.8,21.07-78.07-1.61-17.27-2.42-12.32-2.42-12.32,0,0,7.72,17.85,14.74,20.73,7.02,2.99,10.82,4.72,10.82,4.72,0,0-4.38,34.31,14.85,35.93,19.23,1.61,37.88-1.15,37.88-1.15,0,0-18.19,37.54-19.58,53.66,0,0-5.18,8.64-9.21,13.82-4.03,5.18,8.41,13.13,8.41,13.13,0,0-16.47-4.72-13.7-11.98,2.65-7.25,10.13-16.12,10.13-16.12,0,0,5.64-36.5,13.93-45.71h-33.16s-45.83,7.14-67.02,48.48c0,0-54.12,5.3-49.86,44.1l5.07-4.72s-9.33,29.13,0,47.1c9.44,18.08,11.75,72.78,3.22,80.84l5.87-5.07s-5.18,27.18-21.65,34.89c0,0,59.99-3.11,61.61-44.33,1.61-41.22-5.07-50.21-5.07-50.21l11.75,12.9s-5.53-23.84-18.08-36.04c-12.55-12.21-19.23-31.44,6.68-55.27,0,0,21.65,43.07,40.07,41.91,0,0-16.12,17.62-19.69,22.8-3.45,5.07,5.18,15.31,22.8,26.25,17.62,10.94,39.61,52.51,39.96,55.73.46,3.11-5.07,10.59-5.07,10.59l-3.11,15.66h37.31s-2.42-21.76-6.33-21.76-1.96,5.64-5.07-7.25c-3.22-13.01-3.57-22.11-3.57-22.11,0,0-31.32-43.76-36.5-46.18-5.07-2.3-7.37-8.98-7.37-8.98,0,0,22.34-5.87,29.71-14.51,0,0-1.96,10.59-21.53,18.42,0,0,17.62,20.04,25.45,25.91,7.95,5.87,11.63,25.79,20.84,30.17,9.21,4.26,9.21,4.72,9.21,4.72v14.05l-3.68,7.95,3.68,10.13,35.12-1.96s-5.99-12.55-11.17-15.66c-5.3-3.11-7.72-2.42-7.72-8.64s-2.65-23.49-2.65-23.49c0,0-14.51-15.31-23.95-23.15-9.44-7.95-28.67-24.76-16.12-31.78,12.55-7.14,37.08-11.05,31.78-47.1,0,0,61.95-24.18,98.91-71.85l7.83-4.49s-14.97-.92-14.51-10.71c0,0,8.64,9.33,21.53.69,12.9-8.64,51.01-57.23,57.23-49.75,6.33,7.37,10.59,50.55,10.59,50.55l2.42,2.42-18.31,17.5Zm-204.39-209.46c.12,0,.12.12.23.12-.12,0-.12-.12-.23-.12h0Zm33.39,104.21s-8.64,4.38-14.16,5.18c-5.41.69-8.98,4.03-8.98,4.03,0,0,23.15,28.67,23.15,30.05s7.02,1.61,8.98-3.91c1.96-5.53-2.07-12.21-3.68-20.27-1.61-7.95-5.3-15.08-5.3-15.08h0Z"/>
    <path class="cls-2" d="m283.56,143.93l9.79,5.64,5.41-5.76,11.98,7.71,6.22,1.61-2.3-8.18-14.16-7.6s1.38-4.84-2.07-7.48c-3.34-2.65-8.75-3.22-8.75-3.22h-2.88l3.68-7.6s-4.95,1.5-8.18,6.22l-116.76-79.45-15.78-1.15,6.1,14.51,119.99,72.66s-4.38,9.67-.81,12.44c1.61-3.8,3.91-5.18,6.22-3.68,2.07,1.27,2.53,2.42,2.3,3.34h0Z"/>
  </g>
  <g>
    <circle class="cls-3" cx="379.97" cy="136.73" r="2.57"/>
    <path class="cls-3" d="m383.02,132.12c-1.07-.37-2.23-.8-4.32-.3-4.32,1.04-10.72,3.81-10.72,3.81,0,0,7.19-3.93,9.16-5,2.23-1.22,4.92-1.53,7.27.18,1.49,1.08,2.44,3.35,2.63,5.89,0,0-1.28-3.63-4.03-4.58Z"/>
  </g>
</svg>