<?xml version="1.0" encoding="UTF-8"?>
<svg id="Skjold_h" data-name="Skjold h" xmlns="http://www.w3.org/2000/svg" viewBox="0 0 625 625">
  <defs>
    <style>
      .skjold-1 {
        fill: #fff;
        stroke: #3c3332;
        stroke-miterlimit: 10;
        stroke-width: 12px;
      }

      .skjold-4 {
        fill: #3c3332;
        stroke-width: 0px;
      }
    </style>
  </defs>
  <path class="skjold-1" d="m416.37,148.64c-30.32,0-63.43-9.07-103.72-28.48-40.29,19.41-73.4,28.48-103.72,28.48-11.9,0-23.31-1.48-34.11-4.41v177.37c0,47.44,21.52,90.65,60.61,121.67l77.22,61.3,77.22-61.3c39.08-31.02,60.61-74.24,60.61-121.67v-177.37c-10.8,2.93-22.2,4.41-34.11,4.41Z"/>
  <polygon class="skjold-4" points="312.65 235.42 331.91 274.43 374.96 280.69 343.81 311.05 351.16 353.93 312.65 333.69 274.15 353.93 281.5 311.05 250.35 280.69 293.4 274.43 312.65 235.42"/>
</svg>