<?xml version="1.0" encoding="UTF-8"?>
<svg id="Layer_13" data-name="Layer 13" xmlns="http://www.w3.org/2000/svg" viewBox="0 0 625 625">
  <defs>
    <style>
      .cls-1 {
        fill: #3c3332;
      }

      .cls-1, .cls-2 {
        stroke-width: 0px;
      }

      .cls-2 {
        fill: #fff;
      }
    </style>
  </defs>
  <g>
    <rect class="cls-2" x="242.37" y="449.15" width="140.5" height="21.81"/>
    <path class="cls-1" d="m388.87,476.96h-152.5v-33.81h152.5v33.81Zm-140.5-12h128.5v-9.81h-128.5v9.81Z"/>
  </g>
  <g>
    <path class="cls-2" d="m312.62,470.96h-31.85s16.62,13.71,14.21,63.81h35.29c-2.41-50.1,14.21-63.81,14.21-63.81h-31.85Z"/>
    <path class="cls-1" d="m336.56,540.77h-47.88l.3-6.29c1.15-23.92-2.25-38.74-5.31-46.96-3.05-8.19-6.34-11.55-6.77-11.96l-14.21-10.75,18.07.16h81.57l-14.01,10.59c-.43.41-3.72,3.77-6.77,11.96-3.06,8.22-6.46,23.04-5.31,46.96l.3,6.29Zm-35.38-12h22.87c-.5-26.55,4.35-42.61,8.96-51.81h-40.8c4.61,9.19,9.47,25.26,8.96,51.81Z"/>
  </g>
  <g>
    <circle class="cls-2" cx="312.62" cy="549.7" r="26.85" transform="translate(-280.06 770.23) rotate(-80.78)"/>
    <path class="cls-1" d="m312.62,582.55c-18.12,0-32.85-14.74-32.85-32.85s14.74-32.85,32.85-32.85,32.85,14.74,32.85,32.85-14.74,32.85-32.85,32.85Zm0-53.71c-11.5,0-20.85,9.35-20.85,20.85s9.36,20.85,20.85,20.85,20.85-9.35,20.85-20.85-9.35-20.85-20.85-20.85Z"/>
  </g>
  <g>
    <path class="cls-2" d="m312.78,54.81v-.57l-.16.28-.16-.28v.57l-64.01,115.25s30.73,246.94,32.48,275.74h22.62l8.72-247.03v-9.14s.16,4.64.16,4.64l.16-4.64v9.14s8.71,247.03,8.71,247.03h23.01c1.75-28.8,32.48-275.74,32.48-275.74l-64.01-115.25Z"/>
    <path class="cls-1" d="m349.96,451.8h-38.45l.92-87.41-.08,87.41h-37.06l-.34-5.64c-1.72-28.28-32.14-272.9-32.44-275.37l-.24-1.94,64.21-115.6,6.14-11.08,6.17,11.08,64.21,115.6-.24,1.94c-.31,2.47-30.72,247.08-32.44,275.37l-.34,5.64Zm-28.87-12h17.68c3.95-43.92,28.89-244.89,31.83-268.54l-57.98-104.37-57.98,104.37c2.94,23.66,27.87,224.62,31.83,268.54h17.28l8.66-250.28,8.68,250.28Z"/>
  </g>
</svg>