<?xml version="1.0" encoding="UTF-8"?>
<svg id="Layer_7" data-name="Layer 7" xmlns="http://www.w3.org/2000/svg" viewBox="0 0 625 625">
  <defs>
    <style>
      .cls-1 {
        fill: #3c3332;
      }

      .cls-1, .cls-2 {
        stroke-width: 0px;
      }

      .cls-2 {
        fill: #fff;
      }
    </style>
  </defs>
  <path class="cls-1" d="m489.53,493.49l-3.7,9.54H139.33l-3.7-9.54c-29.75-76.58,22.98-105.29,40.3-114.72l1.53-.84c9.83-36,31.19-64.82,40.08-75.63v-37.72c-13.39-2.35-24.29-8-32.5-16.95-15.19-16.6-14.87-37.94-14.58-42.83v-85.46h84.85v39.19h9.29v-39.19h95.95v39.19h9.29v-39.19h84.85v85.46c.29,4.89.61,26.24-14.59,42.83-8.19,8.95-19.11,14.59-32.48,16.94v37.73c8.88,10.81,30.24,39.63,40.08,75.63l1.53.84c17.32,9.43,70.04,38.14,40.3,114.72Z"/>
  <g>
    <path class="cls-2" d="m434.39,385.67c-10.67-43.96-41.73-77.84-41.73-77.84v-50.68h-160.17v50.68s-31.06,33.88-41.73,77.84h243.63Z"/>
    <path class="cls-2" d="m442.07,391.9H183.08c-30.67,16.7-54.69,41.65-33.52,96.17h326.03c21.18-54.53-2.85-79.48-33.52-96.17Z"/>
    <path class="cls-2" d="m232.49,250.89v.02h160.17v-.02c51.09,0,47.08-45.57,47.08-45.57v-71.03h-54.94v39.19h-39.2v-39.19h-66.04v39.19h-39.2v-39.19h-54.94v71.03s-4.02,45.57,47.08,45.57Z"/>
  </g>
</svg>