<?xml version="1.0" encoding="UTF-8"?>
<svg id="Layer_2" data-name="Layer 2" xmlns="http://www.w3.org/2000/svg" viewBox="0 0 625 625">
  <defs>
    <style>
      .cls-1 {
        fill: #3c3332;
        stroke-width: 0px;
      }
    </style>
  </defs>
  <path class="cls-1" d="m271.61,301.1v51.82s-33.59,12.49-49.89,58.87h181.55c-16.32-46.38-49.89-58.87-49.89-58.87v-51.82h-81.78Z"/>
  <path class="cls-1" d="m397.99,274.86c0-10.77-8.74-19.51-19.52-19.51h-131.96c-10.78,0-19.52,8.74-19.52,19.51s8.4,19.1,18.87,19.47h133.27c10.46-.37,18.86-8.9,18.86-19.47Z"/>
  <path class="cls-1" d="m289.07,248.55h46.85c20.66-9.06,35.12-29.61,35.12-53.61,0-32.34-26.21-58.55-58.55-58.55s-58.55,26.21-58.55,58.55c0,24,14.48,44.55,35.12,53.61Z"/>
  <path class="cls-1" d="m413.06,418.57h-201.14c-25.36,10.25-47.19,23.22-47.19,70.03h295.52c0-46.82-21.84-59.78-47.2-70.03Z"/>
</svg>