<?xml version="1.0" encoding="UTF-8"?>
<svg id="Layer_16" data-name="Layer 16" xmlns="http://www.w3.org/2000/svg" viewBox="0 0 625 625">
  <defs>
    <style>
      .cls-1 {
        fill: #3c3332;
        stroke-width: 0px;
      }
    </style>
  </defs>
  <path class="cls-1" d="m507.28,214.14c-17.68,0-32.01,14.33-32.01,32.01,0,3.36.66,6.54,1.62,9.59l-54.7,33.35-27.04-115.87c12.52-4.34,21.57-16.12,21.57-30.13,0-17.67-14.33-31.99-32.01-31.99s-32.01,14.33-32.01,31.99c0,10.67,5.28,20.08,13.31,25.88l-53.9,90.45-53.79-90.27c7.05-5.87,11.64-14.59,11.64-24.5,0-17.67-14.33-32-32.01-32s-32.01,14.33-32.01,32c0,14.42,9.59,26.46,22.69,30.47l-26.59,113.96-54.05-32.95c1.05-3.17,1.75-6.48,1.75-9.99,0-17.68-14.33-32.01-32.01-32.01s-32.01,14.33-32.01,32.01,14.33,32.01,32.01,32.01c.26,0,.5-.07.76-.08l45.73,118.62h295.8l45.76-118.69c.51.03.99.15,1.5.15,17.68,0,32.01-14.33,32.01-32.01s-14.33-32.01-32.01-32.01Z"/>
  <path class="cls-1" d="m164.56,403.47v90.13s2.34,20.3,26.54,20.3h242.02c24.2,0,26.54-20.3,26.54-20.3v-90.13H164.56Zm16.35,84.17v-59.22l41.57,29.03-41.57,30.19Zm132.08-.69l-41.57-29.14,41.38-28.87.19.13,40.63,28.37-40.63,29.51Zm131.11.69l-41.57-30.19,41.57-29.03v59.22Z"/>
</svg>