<?xml version="1.0" encoding="UTF-8"?>
<svg id="Layer_8" data-name="Layer 8" xmlns="http://www.w3.org/2000/svg" viewBox="0 0 625 625">
  <defs>
    <style>
      .cls-1 {
        fill: #3c3332;
        stroke-width: 0px;
      }
    </style>
  </defs>
  <path class="cls-1" d="m403.85,404.8c6.69-29.9,12.47-55.73,9.36-88.11-7.25-75.49-32.88-102-42.58-110.59l-5.53-5.07,2.58-4.25c26.23-43.21-22.09-86.78-46.44-93.54-15.68,15.68-13.14,52.97-13.14,52.97,0,0-24.15,2.54-41.11,9.75-16.95,7.2-37.29,24.15-52.13,38.56-14.83,14.41-61.87,50.85-81.37,64.84-19.49,13.98-30.94,25.43-30.94,38.14s8.9,29.24,8.9,29.24c0,0-8.05,7.63-2.54,13.99,2.95,3.4,8.9,2.12,8.9,2.12,0,0,12.16-9.61,16.67-11.87,4.52-2.26,12.43-2.26,16.95,5.65,4.52,7.91-.56,12.99-5.09,16.95-4.52,3.96-11.87,9.05-11.87,9.05,0,0-5.65,5.65-.57,11.87,5.09,6.21,14.69,1.7,14.69,1.7,0,0,10.18,15.26,19.78,17.51,9.6,2.26,20.33-12.43,38.42-25.43,18.08-13,41.82-19.22,56.51-18.65,14.69.57,57.63-5.09,75.15-20.34,17.51-15.26,25.99-48.03,24.29-68.37,3.96,32.77,2.82,53.11-18.65,77.41-21.47,24.3-47.46,23.73-84.19,36.17-36.72,12.44-109.62,72.32-114.71,137.3h245.09c-1.3-49.99,6.49-85.55,13.52-116.98Zm-257.63-96.89c-6.78-2.12-8.9-3.39-12.71-1.7,0,0-.42-8.05,5.93-13.56,6.36-5.51,19.49-1.7,19.92,5.09.42,6.78-6.36,12.29-13.14,10.17Zm130.95-58.91c-7.02,0-12.71-5.69-12.71-12.71s5.69-12.71,12.71-12.71,12.71,5.69,12.71,12.71-5.7,12.71-12.71,12.71Zm8.43-38.7c-5.61-.34-11.67-.87-20.94,4.28-19.2,10.67-45.97,32.3-45.97,32.3,0,0,29.05-28.19,36.99-35.94,8.98-8.76,21.39-13.75,34.84-8.76,8.54,3.18,16.03,12.72,20.31,24.58,0,0-10.9-15.6-25.22-16.46Z"/>
  <path class="cls-1" d="m487.02,357.92c-.62-133.31-84.76-189.29-104.54-200.03-.5-.88,5.44,15.82-8.1,41.1,12.12,10.93,41.36,40.6,48.64,116.53,3.3,34.32-2.97,62.31-9.59,91.95-6.89,30.78-14.52,65.61-13.23,114.31h100.38s-12.99-42.38-13.56-163.86Z"/>
</svg>