<?xml version="1.0" encoding="UTF-8"?>
<svg id="Layer_14" data-name="Layer 14" xmlns="http://www.w3.org/2000/svg" viewBox="0 0 625 625">
  <defs>
    <style>
      .cls-1 {
        fill: #3c3332;
        stroke-width: 0px;
      }
    </style>
  </defs>
  <path class="cls-1" d="m164.94,508.44s2.33,20.3,26.54,20.3h242.01c24.21,0,26.54-20.3,26.54-20.3v-90.13H164.94v90.13Zm279.54-65.18v59.22l-41.58-30.2,41.58-29.03Zm-131.32.53l.21.13,40.63,28.37-40.63,29.51-41.58-29.13,41.37-28.87Zm-131.88-.53l41.58,29.03-41.58,30.2v-59.22Zm127.24-31.73h-145.52s-60.6-32.94-62.85-105.04c-2.28-72.1,60.2-104.23,95.38-108.99,11.34-1.54,25.06-1.4,39.46,1.83,13.72,5.01,47.07,20.17,67.67,54.84,6.01,10.29,6.49,28.3,6.49,28.3v129.07h-.64Zm-8-231.82l2.36-27.8-34.59,5.14v-29.48l34.59,5.14-5.14-36.45h29.48l-5.14,36.45,34.62-5.14v29.48l-34.62-5.14,2.33,27.78c17.16,2.5,32.6,10.2,44.74,21.48-18.06,9.65-41.66,27.12-56.65,56.97-15.02-29.85-38.62-47.33-56.68-57,12.13-11.26,27.57-18.94,44.71-21.44Zm224.32,126.78c-2.28,72.11-62.88,105.04-62.88,105.04h-146.02v-128.86s.37-17.38,6.54-28.76c20.61-34.49,53.82-49.58,67.49-54.59,14.44-3.23,28.16-3.36,39.49-1.83,35.17,4.77,97.63,36.9,95.38,108.99Z"/>
</svg>