<?xml version="1.0" encoding="UTF-8"?>
<svg id="Løper" xmlns="http://www.w3.org/2000/svg" viewBox="0 0 625 625">
  <defs>
    <style>
      .cls-1 {
        fill: #3c3332;
        stroke-width: 0px;
      }
    </style>
  </defs>
  <path class="cls-1" d="m220.71,363.87h183.58c28.14-25.69,56.83-68.1,34.82-109.55-20.95-39.49-68.43-77.9-97.22-98.82,5.44-5.02,8.85-11.37,8.85-18.38,0-16.04-17.12-29.06-38.23-29.06s-38.23,13.01-38.23,29.06c0,7.01,3.42,13.36,8.86,18.38-28.8,20.92-76.27,59.34-97.23,98.82-22.01,41.45,6.67,83.86,34.82,109.55Zm51.11-121.04l31.85,4.73-4.73-33.55h27.12l-4.73,33.55,31.85-4.73v27.12l-31.85-4.73,4.73,56.01h-27.12l4.73-56.01-31.85,4.73v-27.12Z"/>
  <path class="cls-1" d="m433.69,435.91h-80.53v-18.82h24.46c25.41,0,24.59-18.09,24.59-18.09v-28.35h-179.42v28.35s-.23,18.09,24.59,18.09h24.47v18.82h-80.53s-68.73,3.6-68.73,81.02h107.3s74.52-.2,74.52-63.67v-36.17h16.2v36.17c0,64.04,74.51,63.67,74.51,63.67h107.3c0-77.42-68.72-81.02-68.72-81.02Z"/>
</svg>