<?xml version="1.0" encoding="UTF-8"?>
<svg id="Layer_18" data-name="Layer 18" xmlns="http://www.w3.org/2000/svg" viewBox="0 0 625 625">
  <defs>
    <style>
      .cls-1 {
        fill-rule: evenodd;
      }

      .cls-1, .cls-3 {
        fill: #3c3332;
        stroke-width: 0px;
      }
    </style>
  </defs>
  <path class="cls-1" d="m280.92,146.48l9.68,5.58,5.35-5.7,11.85,7.63,6.15,1.59-2.28-8.09-14.01-7.52s1.37-4.78-2.05-7.4c-3.3-2.62-8.66-3.19-8.66-3.19h-2.85l3.64-7.52s-4.9,1.48-8.09,6.15l-115.5-78.6-15.61-1.14,6.04,14.35,118.69,71.88s-4.33,9.57-.8,12.3c1.59-3.76,3.87-5.13,6.15-3.65,2.05,1.25,2.51,2.39,2.28,3.3h0Z"/>
  <path class="cls-3" d="m518.3,324.29c-2.16-4.44-11.5-61.62-21.76-62.99-10.37-1.37-12.07-4.67-20.73,4.1-8.77,8.66-26.43,16.86-29.5,18.34-3.19,1.59-26.77,9.57-29.5,23.12,0,0-1.94-18.23,28.71-27,0,0-1.82-32.69-31.78-34.4h13.33s-28.82-35.2-43.51-45.68c-14.81-10.48-9-21.41-9-21.41,0,0-14.12-6.49-8.66-16.63,0,0,4.78,18,16.97,14.69,0,0,7.97,1.03,12.42,2.73,4.56,1.82,7.06.23,7.06.23,0,0,4.67,9.34,8.54,8.32,3.87-.91,11.85-1.48,11.85-1.48,0,0,2.51-6.04-5.69-13.1,0,0,1.03-2.62,8.2,1.37,7.18,4.1,13.33-3.65,13.33-3.65,0,0-3.42-10.71-6.15-13.78-2.73-3.08-21.76-12.99-21.76-12.99l-16.63-11.28s-1.82-4.44-5.92-5.92c-4.21-1.59-16.52-11.96-28.02-12.64,0,0-9.23-7.4-19.02-7.52,0,0,2.96,13.78,17.54,19.48,0,0-14.12-1.25-17.54-12.19,0,0-43.51,31.78-34.63,60.83l9.34,62.08-21.3-5.01-12.87,9.45v-7.52l19.02-17.88s-3.08-62.76-5.81-65.5c-2.73-2.73-3.08-3.08-3.08-3.08l.23-1.48-11.05.46c.57,1.71-1.02,3.87-1.02,3.87,0,0-2.28,22.67,0,25.29,2.28,2.51-1.14,21.64-1.14,21.64l-10.02-3.53s-.34,7.86-8.32,7.06c0,0,6.61-1.25,6.38-7.06-.11-5.81,5.7-7.52,5.7-7.52l-3.3-9.34s6.04-4.78,4.44-9.11c-1.48-4.21-9.11-14.35-9.11-14.35l6.49-6.72s-33.83-10.48-41.92,11.39c0,0-3.53,12.99-2.39,19.25,1.25,6.15-4.21,15.15-4.21,15.15,0,0,6.95,2.73,9.34,1.14,0,0,3.87,9.45-.68,10.71-4.44,1.14-2.28,9.11-2.28,9.11,0,0-26.2,30.07-27.91,47.5-1.82,17.43-13.44,63.22-48.98,37.48-35.43-25.86-40.32-52.06-40.32-52.06,0,0-13.9,41.35,2.51,64.81,16.52,23.47,4.67,35.54,4.67,35.54,0,0,10.25,25.06,44.65,23.12,34.29-2.05,26.77-4.67,26.77-4.67,0,0,16.29-2.39,19.93-8.2,3.76-5.81,22.33-60.14,20.85-77.23-.42-4.48-.78-7.44-1.09-9.38-.83-1.7-1.3-2.81-1.3-2.81,0,0,.43-2.66,1.3,2.81,2.47,5.1,8.07,15.56,13.28,17.7,6.95,2.96,10.71,4.67,10.71,4.67,0,0-4.33,33.94,14.69,35.54,19.02,1.59,37.48-1.14,37.48-1.14,0,0-18,37.13-19.36,53.08,0,0-5.13,8.54-9.11,13.67-3.99,5.13,8.32,12.99,8.32,12.99,0,0-16.29-4.67-13.55-11.85,2.62-7.18,10.02-15.95,10.02-15.95,0,0,5.58-36.11,13.78-45.22h-32.81s-45.34,7.06-66.29,47.96c0,0-53.54,5.24-49.32,43.63l5.01-4.67s-9.23,28.82,0,46.59c9.34,17.88,11.62,71.99,3.19,79.96l5.81-5.01s-5.13,26.88-21.42,34.51c0,0,59.35-3.08,60.94-43.85s-5.01-49.66-5.01-49.66l11.62,12.76s-5.47-23.58-17.88-35.65c-12.42-12.07-19.02-31.1,6.61-54.68,0,0,21.41,42.6,39.64,41.46,0,0-15.95,17.43-19.48,22.55-3.42,5.01,5.13,15.15,22.55,25.97,17.43,10.82,39.18,51.94,39.53,55.13.46,3.08-5.01,10.48-5.01,10.48l-3.08,15.49h36.91s-2.39-21.53-6.27-21.53-1.94,5.58-5.01-7.18c-3.19-12.87-3.53-21.87-3.53-21.87,0,0-30.98-43.29-36.11-45.68-5.01-2.28-7.29-8.88-7.29-8.88,0,0,22.1-5.81,29.39-14.35,0,0-1.94,10.48-21.3,18.23,0,0,17.43,19.82,25.17,25.63,7.86,5.81,11.5,25.52,20.62,29.84,9.11,4.21,9.11,4.67,9.11,4.67v13.9l-3.65,7.86,3.65,10.02,34.74-1.94s-5.92-12.42-11.05-15.49c-5.24-3.08-7.63-2.39-7.63-8.54s-2.62-23.24-2.62-23.24c0,0-14.35-15.15-23.69-22.9-9.34-7.86-28.36-24.49-15.95-31.44,12.42-7.06,36.68-10.94,31.44-46.59,0,0,61.28-23.92,97.85-71.08l7.75-4.44s-14.81-.91-14.35-10.59c0,0,8.54,9.23,21.3.68,12.76-8.54,50.46-56.61,56.61-49.21,6.27,7.29,10.48,50.01,10.48,50.01l2.39,2.39-18.11,17.31,19.93,23.58s5.58-11.73,7.75-11.73,7.97-14.24,6.61-26.43c0,0,4.44-8.89,2.39-13.44Zm-137.31-184.82c-.38,1.37-1.8,2.17-3.17,1.79-1.37-.38-2.17-1.8-1.79-3.17.38-1.37,1.8-2.17,3.17-1.79,1.37.38,2.17,1.8,1.79,3.17Zm-5.3-6.79c2.23-1.22,4.92-1.53,7.27.18,1.49,1.08,2.44,3.35,2.63,5.89,0,0-1.28-3.63-4.03-4.58-1.07-.37-2.23-.8-4.31-.3-4.32,1.04-10.72,3.81-10.72,3.81,0,0,7.19-3.93,9.16-5Zm-54.34,150.49c-1.94,5.47-8.88,5.24-8.88,3.87s-22.9-29.73-22.9-29.73c0,0,3.53-3.3,8.88-3.99,5.47-.8,14.01-5.13,14.01-5.13,0,0,3.65,7.06,5.24,14.92,1.59,7.97,5.58,14.58,3.65,20.05Z"/>
</svg>