<?xml version="1.0" encoding="UTF-8"?>
<svg id="Layer_4" data-name="Layer 4" xmlns="http://www.w3.org/2000/svg" viewBox="0 0 625 625">
  <defs>
    <style>
      .cls-1 {
        fill: #3c3332;
        stroke-width: 0px;
      }
    </style>
  </defs>
  <path class="cls-1" d="m416.37,148.77c-30.32,0-63.43-9.07-103.72-28.48-40.29,19.41-73.4,28.48-103.72,28.48-11.9,0-23.31-1.48-34.11-4.41v177.37c0,47.44,21.52,90.65,60.61,121.67l77.22,61.3,77.22-61.3c39.08-31.02,60.61-74.24,60.61-121.67v-177.37c-10.8,2.93-22.2,4.41-34.11,4.41Zm-65.21,205.29l-38.51-20.24-38.51,20.24,7.35-42.88-31.15-30.37,43.05-6.26,19.25-39.01,19.25,39.01,43.05,6.26-31.15,30.37,7.35,42.88Z"/>
</svg>